# xmcd
#
# Track frame offsets: 
#        150
#        13215
#        26408
#        39048
#        50226
#        60253
#        69082
#        81842
#        93101
#        105191
#        117943
#        130684
#        142844
#        155797
#        167761
#        178946
#        192363
#        204565
#        217186
#        229801
#        241795
#        252426
#        265018
#        276973
#        289303
#
# Disc length: 4029 seconds
#
# Revision: 0
# Processed by: cddbd v1.5.2PL0 Copyright (c) Steve Scherf et al.
# Submitted via: ExactAudioCopy v0.99pb4
#
DISCID=5e0fbb19
DTITLE=Various Artist - The Very Best of the Royals and the Midnighters
DYEAR=2001
DGENRE=R&B
TTITLE0=Royals - Starting From Tonight
TTITLE1=Royals - Every Beat Of My Heart
TTITLE2=Royals - Moonrise
TTITLE3=Royals - Fifth Street Blues
TTITLE4=Royals - Get It
TTITLE5=Royals - I Feel That-A-Way
TTITLE6=Royals - Work With Me Annie
TTITLE7=Hank Ballard and The Midnighters - Sexy Ways
TTITLE8=Hank Ballard and The Midnighters - Annie Had A Baby
TTITLE9=Hank Ballard and The Midnighters - Annie's Aunt Fanny
TTITLE10=Hank Ballard and The Midnighters - Ring A-Ling A-Ling
TTITLE11=Hank Ballard and The Midnighters - Henry's Got Flat Feet (Can't
TTITLE11=Dance No More)
TTITLE12=Hank Ballard and The Midnighters - It's Love Baby (24 Hours A D
TTITLE12=ay)
TTITLE13=Hank Ballard and The Midnighters - Rock And Roll Wedding
TTITLE14=Hank Ballard and The Midnighters - That House On The Hill
TTITLE15=Hank Ballard and The Midnighters - Open Up The Back Door
TTITLE16=Hank Ballard and The Midnighters - Sweet Mama Do Right
TTITLE17=Hank Ballard and The Midnighters - Rock, Granny Roll
TTITLE18=Hank Ballard and The Midnighters - Tore Up Over You
TTITLE19=Hank Ballard and The Midnighters - Come On And Get It
TTITLE20=Hank Ballard and The Midnighters - In The Doorway Crying
TTITLE21=Hank Ballard and The Midnighters - What Made You Change Your Mi
TTITLE21=nd
TTITLE22=Hank Ballard and The Midnighters - Let 'Em Roll
TTITLE23=Hank Ballard and The Midnighters - Daddy's Little Baby
TTITLE24=Hank Ballard and The Midnighters - Stay By My Side
EXTD=
EXTT0=
EXTT1=
EXTT2=
EXTT3=
EXTT4=
EXTT5=
EXTT6=
EXTT7=
EXTT8=
EXTT9=
EXTT10=
EXTT11=
EXTT12=
EXTT13=
EXTT14=
EXTT15=
EXTT16=
EXTT17=
EXTT18=
EXTT19=
EXTT20=
EXTT21=
EXTT22=
EXTT23=
EXTT24=
PLAYORDER=
